# xmcd
#
# Track frame offsets: 
#        150
#        27355
#        47513
#        65669
#        83566
#        100677
#        121347
#        138190
#        151467
#        169540
#        188114
#        204861
#        227649
#        242124
#        259533
#        276808
#
# Disc length: 3941 seconds
#
# Revision: 2
# Processed by: cddbd v1.5.2PL0 Copyright (c) Steve Scherf et al.
# Submitted via: ExactAudioCopy v0.95b4
#
DISCID=c90f6310
DTITLE=??? - ??? ??? ????
DYEAR=2002
DGENRE=World
TTITLE0=????
TTITLE1=?????
TTITLE2=????
TTITLE3=?????
TTITLE4=??
TTITLE5=?????????
TTITLE6=??
TTITLE7=?????
TTITLE8=??????
TTITLE9=??
TTITLE10=???????
TTITLE11=??? ???
TTITLE12=???????
TTITLE13=???
TTITLE14=???????
TTITLE15=??????????
EXTD=
EXTT0=
EXTT1=
EXTT2=
EXTT3=
EXTT4=
EXTT5=
EXTT6=
EXTT7=
EXTT8=
EXTT9=
EXTT10=
EXTT11=
EXTT12=
EXTT13=
EXTT14=
EXTT15=
PLAYORDER=
